<?xml version="1.0" encoding="UTF-8"?>
<svg id="Layer_2" data-name="Layer 2" xmlns="http://www.w3.org/2000/svg" viewBox="0 0 52.74 46.96">
  <defs>
    <style>
      .cls-1 {
        fill: #400996;
      }

      .cls-2 {
        fill: #ff0069;
      }

      .cls-3 {
        fill: #2b0665;
      }
    </style>
  </defs>
  <g id="Layer_1-2" data-name="Layer 1">
    <g>
      <g>
        <path class="cls-2" d="M23.4,45.93c-1.69,0-3.39-.16-5.04-.47-5.21-.97-9.85-3.42-12.75-6.74-2.19-2.51-3.61-5.23-4.22-8.06-1.75-7.99,3.33-15.09,9.05-17.09,1.46-.51,2.95-.76,4.45-.76,3.29,0,6.44,1.27,8.64,3.48,2.07,2.08,3.19,4.88,3.17,7.88-.02,3.39-1.45,6.2-4.01,7.91-1.54,1.02-3.45,1.58-5.37,1.58-1.54,0-3.04-.35-4.34-1.02-3.39-1.74-4.26-5.73-3.62-8.91.3-1.45.89-2.67,1.68-3.51-.17.15-.34.31-.5.47-1.48,1.54-2.22,3.74-2.12,6.37.02.5.08,1,.2,1.47.82,3.54,4.2,5.82,8.61,5.82,1.44,0,2.9-.25,4.34-.73,1.33-.46,2.6-1.1,3.76-1.91,2.51-1.74,4.56-4.59,6.1-8.47,1.1-2.79,1.68-5.52,1.98-7.31.26-1.51.33-2.48.33-2.49.03-.42.31-.78.7-.91l1.33-.45c-.4-5.67.32-9.97.36-10.16.09-.5.52-.86,1.02-.86.03,0,.05,0,.08,0,.11,0,2.65.21,5.56,1.78,2.69,1.45,6.23,4.39,7.82,10.15,1.26,4.57,1.43,8.94.48,12.97-.99,4.24-3.17,8.01-6.47,11.19-2.42,2.35-5.37,4.27-8.74,5.71-.01,0-.04.01-.06.02-3.78,2-8.07,3.06-12.41,3.06ZM13.94,25.95c.09,1.2,1.53,2.31,3.08,2.31.72,0,1.4-.25,1.96-.71.19-.15.36-.31.51-.5.89-1.08,1.3-2.43,1.17-3.81-.11-1.3-.67-2.47-1.57-3.31-.03-.02-.06-.05-.09-.07-.42-.38-.89-.68-1.45-.92-.59-.24-1.29-.37-2.02-.37s-1.47.12-2.17.36c.51-.13,1.02-.2,1.53-.2,2.85,0,5.08,2.06,5.19,4.78.05,1.46-.47,2.33-.92,2.79-.51.53-1.2.83-1.9.83-.58,0-1.1-.22-1.43-.6-.29-.34-.42-.77-.35-1.22.09-.64,0-1.74-.68-1.99-.07-.03-.13-.04-.18-.04-.03,0-.12,0-.23.12-.13.14-.55.71-.46,2.33,0,.05,0,.09,0,.14,0,.03,0,.07,0,.08Z"/>
        <path d="M37.15,2.08s9.57.7,12.46,11.17c1.28,4.63,1.33,8.79.47,12.46-.99,4.25-3.22,7.83-6.18,10.68-2.4,2.33-5.3,4.17-8.43,5.5-.03,0-.05.02-.08.03-3.88,2.07-8.02,2.97-11.99,2.97-1.66,0-3.29-.16-4.85-.45-5.06-.94-9.46-3.31-12.16-6.4-2.18-2.5-3.45-5.09-3.99-7.6-1.61-7.34,2.93-13.99,8.38-15.89,1.38-.48,2.77-.71,4.11-.71,3.06,0,5.91,1.17,7.91,3.18,1.78,1.79,2.89,4.25,2.87,7.14-.02,3.35-1.5,5.69-3.55,7.05-1.42.94-3.12,1.41-4.8,1.41-1.35,0-2.69-.3-3.86-.91-2.9-1.49-3.64-4.99-3.08-7.78.36-1.75,1.23-3.22,2.4-3.73.71-.31,1.42-.45,2.1-.45,2.22,0,4.06,1.53,4.15,3.79.07,1.85-1.01,2.55-1.78,2.55-.46,0-.81-.24-.75-.63.15-1.04-.08-2.64-1.34-3.11-.18-.07-.36-.1-.54-.1-1.02,0-1.86,1.16-1.72,3.54-.01.05,0,.11,0,.16.13,1.86,2.07,3.35,4.12,3.35.9,0,1.82-.29,2.62-.96.23-.18.45-.4.65-.65,1.09-1.33,1.54-2.98,1.39-4.56-.13-1.53-.8-2.99-1.98-4.05h-.01c-.5-.46-1.08-.83-1.75-1.11-.73-.3-1.56-.45-2.42-.45-3.82,0-8.38,2.98-8.14,9.57.02.59.1,1.15.23,1.68.97,4.21,4.98,6.61,9.62,6.61,1.52,0,3.1-.26,4.67-.79,1.37-.47,2.73-1.14,4.02-2.04,3.11-2.16,5.14-5.59,6.47-8.94,1.11-2.82,1.72-5.59,2.04-7.52.27-1.58.34-2.59.34-2.59l2.1-.71c-.53-6,.28-10.71.28-10.71M37.15,0c-1,0-1.87.72-2.04,1.72-.03.18-.71,4.21-.42,9.61l-.58.2c-.79.27-1.35.99-1.41,1.82,0,0-.07.94-.32,2.38-.29,1.75-.86,4.4-1.93,7.11-1.06,2.67-2.37,4.83-3.9,6.43.77-1.49,1.18-3.22,1.19-5.1.02-3.28-1.21-6.34-3.47-8.62-2.4-2.41-5.82-3.79-9.38-3.79-1.62,0-3.23.28-4.79.82-3.21,1.12-6.11,3.61-7.96,6.83C.15,22.9-.48,26.97.37,30.88c.65,3,2.14,5.87,4.45,8.52,3.05,3.49,7.91,6.07,13.35,7.08,1.72.32,3.48.49,5.23.49,4.49,0,8.93-1.09,12.85-3.15.01,0,.02,0,.03-.01,3.5-1.49,6.55-3.48,9.06-5.92,3.45-3.32,5.72-7.26,6.76-11.7.99-4.2.82-8.74-.49-13.48C48.37.95,37.75.04,37.3,0c-.05,0-.1,0-.15,0h0Z"/>
      </g>
      <path class="cls-3" d="M33.49,38.44s2.64-1.23,2.55.98-5.06,1.83-5.06,1.83c0,0-.4-3.8,1.13-4.65s2.15.86,1.38,1.84Z"/>
      <path class="cls-3" d="M50.08,25.71c-.99,4.25-3.22,7.83-6.18,10.68l-7.12-10.3-2.35-10c.27-1.58.34-2.59.34-2.59l2.1-.71c-.53-6,.28-10.71.28-10.71,0,0,9.57.7,12.46,11.17,1.28,4.63,1.33,8.79.47,12.46Z"/>
      <path class="cls-3" d="M19.03,23.54c.11,2.95-2.68,2.96-2.53,1.92.15-1.04-.08-2.64-1.34-3.11-1.24-.47-2.42.65-2.26,3.44l-2.52-1.86c.36-1.75,1.23-3.22,2.4-3.73,3.03-1.31,6.13.39,6.25,3.34Z"/>
      <path class="cls-3" d="M25.67,24.16c-.02,3.35-1.5,5.69-3.55,7.05l-2.48-2.87c.23-.18.45-.4.65-.65,1.09-1.33,1.54-2.98,1.39-4.56-.13-1.53-.8-2.99-1.98-4.05l3.1-2.06c1.78,1.79,2.89,4.25,2.87,7.14Z"/>
      <path class="cls-1" d="M21.9,34.59l-3.35,9.85c-5.06-.94-9.46-3.31-12.16-6.4-2.18-2.5-3.45-5.09-3.99-7.6l5.21-1.67c1.29,5.59,7.92,7.98,14.29,5.82Z"/>
    </g>
  </g>
</svg>