<?xml version="1.0" encoding="UTF-8"?>
<svg id="Layer_2" data-name="Layer 2" xmlns="http://www.w3.org/2000/svg" xmlns:xlink="http://www.w3.org/1999/xlink" viewBox="0 0 47.79 11.02">
  <defs>
    <style>
      .cls-1 {
        fill: url(#linear-gradient-3);
      }

      .cls-2 {
        fill: url(#linear-gradient-2);
      }

      .cls-3 {
        fill: #400996;
      }

      .cls-4 {
        fill: url(#linear-gradient);
      }
    </style>
    <linearGradient id="linear-gradient" x1="5.47" y1="1.31" x2="5.55" y2="9.7" gradientUnits="userSpaceOnUse">
      <stop offset=".05" stop-color="#fff"/>
      <stop offset=".53" stop-color="#fffcfd"/>
      <stop offset=".73" stop-color="#fff5f9"/>
      <stop offset=".88" stop-color="#ffe9f2"/>
      <stop offset="1" stop-color="#ffd9e9"/>
    </linearGradient>
    <linearGradient id="linear-gradient-2" x1="23.86" y1="1.31" x2="23.93" y2="9.7" xlink:href="#linear-gradient"/>
    <linearGradient id="linear-gradient-3" x1="42.24" x2="42.31" y2="9.7" xlink:href="#linear-gradient"/>
  </defs>
  <g id="Layer_1-2" data-name="Layer 1">
    <g>
      <circle class="cls-4" cx="5.51" cy="5.51" r="4.46"/>
      <path class="cls-3" d="M5.51,2.11c1.88,0,3.4,1.52,3.4,3.4s-1.52,3.4-3.4,3.4-3.4-1.52-3.4-3.4,1.52-3.4,3.4-3.4M5.51,0C2.47,0,0,2.47,0,5.51s2.47,5.51,5.51,5.51,5.51-2.47,5.51-5.51S8.55,0,5.51,0h0Z"/>
    </g>
    <g>
      <path class="cls-2" d="M23.89,9.97c-2.46,0-4.46-2-4.46-4.46s2-4.46,4.46-4.46,4.46,2,4.46,4.46-2,4.46-4.46,4.46Z"/>
      <path class="cls-3" d="M23.89,2.11c1.88,0,3.4,1.52,3.4,3.4s-1.52,3.4-3.4,3.4-3.4-1.52-3.4-3.4,1.52-3.4,3.4-3.4M23.89,0c-3.04,0-5.51,2.47-5.51,5.51s2.47,5.51,5.51,5.51,5.51-2.47,5.51-5.51S26.93,0,23.89,0h0Z"/>
    </g>
    <g>
      <circle class="cls-1" cx="42.28" cy="5.51" r="4.46"/>
      <path class="cls-3" d="M42.28,2.11c1.88,0,3.4,1.52,3.4,3.4s-1.52,3.4-3.4,3.4-3.4-1.52-3.4-3.4,1.52-3.4,3.4-3.4M42.28,0c-3.04,0-5.51,2.47-5.51,5.51s2.47,5.51,5.51,5.51,5.51-2.47,5.51-5.51-2.47-5.51-5.51-5.51h0Z"/>
    </g>
  </g>
</svg>