<?xml version="1.0" encoding="UTF-8"?>
<svg id="Layer_2" data-name="Layer 2" xmlns="http://www.w3.org/2000/svg" viewBox="0 0 76.42 27.44">
  <defs>
    <style>
      .cls-1 {
        fill: #ff0069;
      }
    </style>
  </defs>
  <g id="Layer_1-2" data-name="Layer 1">
    <g>
      <path class="cls-1" d="M11.61,26.8c-.06,0-.12,0-.19-.03-6.56-1.98-8.94-6.07-9.04-6.24-.08-.13-.1-.29-.07-.44.46-2.25,1.49-4.79,1.97-5.92l-3.28-1.52c-.28-.13-.42-.43-.35-.73C2.25,5.13,6.42,2.62,6.6,2.51c.1-.06.21-.09.32-.09.01,0,.03,0,.04,0,2.13.14,4.32,1.06,5.22,1.48,2.04-1.87,4.35-3.13,4.46-3.19.09-.05.2-.08.3-.08.08,0,.16.01.23.04,6.49,2.51,7.97,7.5,8.03,7.71.07.24-.01.51-.21.67-.9.74-1.53,1.48-1.87,1.92,2.85,2.9,3.71,5.27,3.75,5.37.05.13.05.27,0,.4-1.77,5.74-6.9,8.21-7.12,8.31-.09.04-.18.06-.27.06-.18,0-.36-.08-.48-.22-1.16-1.31-3.04-2.85-3.99-3.59l-2.85,5.14c-.12.21-.33.33-.56.33Z"/>
      <path d="M16.94,1.28c6.26,2.43,7.64,7.29,7.64,7.29-1.52,1.26-2.3,2.48-2.3,2.48,3.09,3.01,3.98,5.51,3.98,5.51-1.7,5.53-6.78,7.92-6.78,7.92-1.65-1.87-4.67-4.12-4.67-4.12l-3.21,5.79c-6.39-1.93-8.67-5.94-8.67-5.94.59-2.89,2.18-6.37,2.18-6.37l-3.85-1.78C2.82,5.47,6.92,3.06,6.92,3.06c2.59.18,5.38,1.61,5.38,1.61,2.08-2,4.64-3.39,4.64-3.39M16.94,0c-.21,0-.42.05-.61.15-.1.05-2.25,1.23-4.27,2.99-1.09-.47-3.1-1.23-5.06-1.36-.03,0-.06,0-.09,0-.23,0-.45.06-.65.18-.19.11-4.59,2.76-6.24,9.82-.14.59.16,1.2.71,1.45l2.72,1.26c-.53,1.31-1.36,3.5-1.77,5.47-.06.3-.01.62.14.89.1.18,2.6,4.48,9.41,6.54.12.04.25.05.37.05.46,0,.89-.24,1.12-.66l2.48-4.48c.99.8,2.39,1.99,3.32,3.04.25.28.6.43.96.43.18,0,.37-.04.54-.12.23-.11,5.61-2.7,7.46-8.7.08-.26.08-.55-.02-.81-.04-.1-.86-2.37-3.5-5.19.34-.39.82-.89,1.42-1.39.39-.32.55-.85.41-1.33-.06-.22-1.63-5.51-8.41-8.14-.15-.06-.31-.09-.46-.09h0Z"/>
    </g>
    <g>
      <path class="cls-1" d="M39.44,25.2c-.08,0-.16-.02-.23-.05-4.98-2.5-6.32-6.1-6.37-6.25-.04-.12-.04-.25,0-.37.68-1.73,1.86-3.63,2.4-4.47l-2.42-1.67c-.2-.14-.28-.4-.18-.63,2.21-5.22,5.91-6.65,6.07-6.71.06-.02.12-.03.18-.03.04,0,.08,0,.12.01,1.68.41,3.32,1.45,3.97,1.91,1.9-1.21,3.92-1.9,4.01-1.93.05-.02.11-.03.17-.03.09,0,.19.02.27.07,4.85,2.91,5.34,7.12,5.36,7.29.02.21-.08.4-.26.51-.82.47-1.43.97-1.76,1.28,1.88,2.72,2.24,4.73,2.26,4.82.02.11,0,.22-.05.32-2.21,4.35-6.67,5.62-6.86,5.67-.05.01-.09.02-.14.02-.18,0-.35-.09-.44-.25-.75-1.21-2.04-2.7-2.7-3.43l-2.99,3.72c-.1.13-.25.19-.41.19Z"/>
      <path d="M47.16,5.49c4.68,2.81,5.11,6.9,5.11,6.9-1.39.8-2.19,1.67-2.19,1.67,2.06,2.84,2.42,4.97,2.42,4.97-2.13,4.19-6.53,5.4-6.53,5.4-1.06-1.73-3.17-3.95-3.17-3.95l-3.37,4.19c-4.85-2.44-6.12-5.96-6.12-5.96.88-2.23,2.63-4.8,2.63-4.8l-2.83-1.96c2.15-5.07,5.77-6.43,5.77-6.43,2.05.5,4.09,2.03,4.09,2.03,1.94-1.31,4.19-2.07,4.19-2.07M47.16,4.45c-.11,0-.22.02-.33.05-.09.03-1.97.67-3.83,1.81-.81-.53-2.31-1.41-3.86-1.79-.08-.02-.16-.03-.25-.03-.12,0-.25.02-.36.07-.16.06-4.06,1.57-6.36,7-.19.45-.04.98.37,1.26l2,1.39c-.61.97-1.57,2.61-2.17,4.14-.09.23-.1.49-.01.73.06.16,1.46,3.95,6.63,6.54.15.07.31.11.47.11.31,0,.61-.14.81-.39l2.61-3.24c.68.78,1.64,1.93,2.23,2.89.19.31.53.5.89.5.09,0,.18-.01.28-.04.2-.05,4.87-1.38,7.18-5.94.1-.2.14-.43.1-.65-.02-.09-.36-2.02-2.08-4.64.33-.27.78-.6,1.33-.92.36-.2.56-.6.52-1.01-.02-.19-.54-4.64-5.61-7.69-.16-.1-.35-.15-.54-.15h0Z"/>
    </g>
    <g>
      <path class="cls-1" d="M67.71,26.26c-.2,0-.37-.13-.43-.31-.38-1.18-1.16-2.7-1.56-3.44l-3.29,2.52c-.08.06-.18.09-.27.09-.1,0-.21-.04-.29-.11-3.68-3.13-4.06-6.44-4.08-6.58-.01-.11.02-.22.08-.31.93-1.32,2.31-2.68,2.94-3.27l-1.69-1.9c-.14-.16-.15-.4-.02-.57,2.94-3.94,6.35-4.39,6.5-4.4.02,0,.04,0,.05,0,.07,0,.14.02.21.05,1.33.69,2.49,1.91,2.96,2.43,1.85-.63,3.7-.79,3.78-.8.01,0,.03,0,.04,0,.12,0,.23.05.32.13,3.48,3.46,3.03,7.1,3.01,7.25-.02.18-.15.32-.32.37-.79.23-1.41.52-1.75.71,1.02,2.68.91,4.45.91,4.53,0,.1-.04.19-.11.26-2.76,3.21-6.78,3.36-6.95,3.36h-.01Z"/>
      <path d="M65.64,8.42c1.63.85,3.02,2.55,3.02,2.55,1.91-.71,3.96-.88,3.96-.88,3.36,3.34,2.88,6.87,2.88,6.87-1.34.38-2.19.95-2.19.95,1.15,2.82,1.02,4.69,1.02,4.69-2.66,3.09-6.62,3.21-6.62,3.21-.54-1.68-1.85-3.98-1.85-3.98l-3.7,2.84c-3.59-3.05-3.92-6.29-3.92-6.29,1.2-1.7,3.2-3.5,3.2-3.5l-1.98-2.23c2.86-3.83,6.19-4.23,6.19-4.23M65.64,7.52s-.07,0-.11,0c-.15.02-3.75.49-6.8,4.58-.26.34-.24.82.05,1.14l1.4,1.58c-.71.69-1.87,1.88-2.68,3.04-.13.18-.18.4-.16.61.02.15.42,3.63,4.23,6.88.17.14.38.22.58.22.19,0,.39-.06.55-.19l2.87-2.19c.41.79.98,1.96,1.29,2.9.12.37.47.63.86.63,0,0,.02,0,.03,0,.18,0,4.39-.16,7.28-3.52.13-.15.2-.33.22-.53,0-.08.11-1.78-.8-4.34.33-.16.78-.35,1.31-.5.34-.1.6-.39.64-.74.02-.16.5-4.02-3.14-7.63-.17-.17-.4-.26-.64-.26-.03,0-.05,0-.08,0-.08,0-1.8.16-3.6.73-.57-.61-1.65-1.67-2.88-2.31-.13-.07-.27-.1-.42-.1h0Z"/>
    </g>
  </g>
</svg>